<svg xmlns="http://www.w3.org/2000/svg" width="214" height="72" viewBox="0 0 214 72" fill="none" role="img" aria-label="Deferi">
<!-- Lockup reverso Deferi p/ fundos ESCUROS (sidebar/splash): quadrado branco + check azul + wordmark branca em CURVA. -->
<g clip-path="url(#clip0_8_6d)">
<rect width="72" height="72" rx="22" fill="#FFFFFF"/>
<path d="M17.28 38.88L30.96 51.84L56.16 21.6" stroke="#2E90FA" stroke-width="12" stroke-linecap="round" stroke-linejoin="round"/>
</g>
<path d="M100.023 53.4084C98.117 53.4084 96.3909 52.9183 94.8445 51.9382C93.3089 50.9472 92.0893 49.4934 91.1854 47.5767C90.2924 45.6491 89.8459 43.286 89.8459 40.4872C89.8459 37.6122 90.3087 35.2218 91.2344 33.3161C92.16 31.3994 93.3906 29.9673 94.9261 29.0199C96.4725 28.0616 98.166 27.5824 100.006 27.5824C101.411 27.5824 102.582 27.822 103.518 28.3011C104.466 28.7694 105.228 29.3575 105.805 30.0653C106.393 30.7623 106.84 31.4484 107.145 32.1236H107.357V19.5455H114.3V53H107.439V48.9815H107.145C106.818 49.6785 106.355 50.37 105.756 51.0561C105.168 51.7313 104.401 52.2921 103.453 52.7386C102.517 53.1851 101.373 53.4084 100.023 53.4084ZM102.228 47.8707C103.35 47.8707 104.297 47.5658 105.07 46.956C105.854 46.3352 106.453 45.4695 106.867 44.3587C107.292 43.2479 107.504 41.9465 107.504 40.4545C107.504 38.9626 107.297 37.6667 106.884 36.5668C106.47 35.4669 105.871 34.6174 105.087 34.0185C104.303 33.4195 103.35 33.12 102.228 33.12C101.085 33.12 100.121 33.4304 99.3366 34.0511C98.5526 34.6719 97.959 35.5322 97.5561 36.6321C97.1532 37.732 96.9517 39.0062 96.9517 40.4545C96.9517 41.9138 97.1532 43.2043 97.5561 44.326C97.9699 45.4368 98.5634 46.308 99.3366 46.9396C100.121 47.5604 101.085 47.8707 102.228 47.8707ZM130.076 53.4901C127.495 53.4901 125.273 52.9673 123.411 51.9219C121.56 50.8655 120.133 49.3736 119.131 47.446C118.129 45.5076 117.628 43.2152 117.628 40.5689C117.628 37.9879 118.129 35.7228 119.131 33.7734C120.133 31.8241 121.543 30.3049 123.362 29.2159C125.192 28.1269 127.337 27.5824 129.798 27.5824C131.453 27.5824 132.994 27.8492 134.421 28.3828C135.858 28.9055 137.111 29.6951 138.178 30.7514C139.256 31.8078 140.095 33.1364 140.694 34.7372C141.293 36.3272 141.592 38.1894 141.592 40.3239V42.2351H120.405V37.9226H135.042C135.042 36.9207 134.824 36.0331 134.388 35.2599C133.953 34.4867 133.348 33.8823 132.575 33.4467C131.813 33.0002 130.925 32.777 129.912 32.777C128.856 32.777 127.92 33.022 127.103 33.5121C126.297 33.9912 125.665 34.6392 125.208 35.456C124.751 36.2618 124.516 37.1603 124.505 38.1513V42.2514C124.505 43.4929 124.734 44.5656 125.192 45.4695C125.66 46.3733 126.319 47.0703 127.168 47.5604C128.018 48.0504 129.025 48.2955 130.19 48.2955C130.963 48.2955 131.671 48.1866 132.314 47.9688C132.956 47.7509 133.506 47.4242 133.964 46.9886C134.421 46.553 134.769 46.0194 135.009 45.3878L141.445 45.8125C141.118 47.3589 140.449 48.7093 139.436 49.8636C138.434 51.0071 137.138 51.9001 135.548 52.5426C133.969 53.1742 132.145 53.4901 130.076 53.4901ZM158.246 27.9091V33.1364H142.76V27.9091H158.246ZM146.305 53V26.0959C146.305 24.2772 146.659 22.7689 147.367 21.571C148.086 20.3731 149.066 19.4747 150.307 18.8757C151.549 18.2767 152.959 17.9773 154.538 17.9773C155.605 17.9773 156.58 18.0589 157.462 18.2223C158.355 18.3857 159.019 18.5327 159.455 18.6634L158.214 23.8906C157.941 23.8035 157.604 23.7218 157.201 23.6456C156.809 23.5694 156.406 23.5312 155.992 23.5312C154.968 23.5312 154.255 23.7708 153.852 24.25C153.449 24.7183 153.248 25.3771 153.248 26.2266V53H146.305ZM171.654 53.4901C169.073 53.4901 166.851 52.9673 164.989 51.9219C163.138 50.8655 161.711 49.3736 160.709 47.446C159.707 45.5076 159.206 43.2152 159.206 40.5689C159.206 37.9879 159.707 35.7228 160.709 33.7734C161.711 31.8241 163.121 30.3049 164.94 29.2159C166.769 28.1269 168.915 27.5824 171.376 27.5824C173.031 27.5824 174.572 27.8492 175.999 28.3828C177.436 28.9055 178.689 29.6951 179.756 30.7514C180.834 31.8078 181.673 33.1364 182.272 34.7372C182.871 36.3272 183.17 38.1894 183.17 40.3239V42.2351H161.983V37.9226H176.62C176.62 36.9207 176.402 36.0331 175.966 35.2599C175.531 34.4867 174.926 33.8823 174.153 33.4467C173.391 33.0002 172.503 32.777 171.49 32.777C170.434 32.777 169.497 33.022 168.681 33.5121C167.875 33.9912 167.243 34.6392 166.786 35.456C166.328 36.2618 166.094 37.1603 166.083 38.1513V42.2514C166.083 43.4929 166.312 44.5656 166.769 45.4695C167.238 46.3733 167.897 47.0703 168.746 47.5604C169.595 48.0504 170.603 48.2955 171.768 48.2955C172.541 48.2955 173.249 48.1866 173.892 47.9688C174.534 47.7509 175.084 47.4242 175.541 46.9886C175.999 46.553 176.347 46.0194 176.587 45.3878L183.023 45.8125C182.696 47.3589 182.027 48.7093 181.014 49.8636C180.012 51.0071 178.716 51.9001 177.126 52.5426C175.547 53.1742 173.723 53.4901 171.654 53.4901ZM186.331 53V27.9091H193.078V32.2869H193.339C193.796 30.7296 194.564 29.5535 195.642 28.7585C196.72 27.9527 197.962 27.5497 199.367 27.5497C199.715 27.5497 200.091 27.5715 200.494 27.6151C200.897 27.6586 201.251 27.7185 201.556 27.7947V33.9695C201.229 33.8714 200.777 33.7843 200.2 33.7081C199.623 33.6319 199.094 33.5938 198.615 33.5938C197.592 33.5938 196.677 33.817 195.871 34.2635C195.076 34.6991 194.444 35.3089 193.976 36.093C193.519 36.8771 193.29 37.781 193.29 38.8047V53H186.331ZM203.773 53V27.9091H210.732V53H203.773ZM207.269 24.6747C206.235 24.6747 205.347 24.3317 204.607 23.6456C203.877 22.9486 203.512 22.1155 203.512 21.1463C203.512 20.188 203.877 19.3658 204.607 18.6797C205.347 17.9827 206.235 17.6342 207.269 17.6342C208.304 17.6342 209.186 17.9827 209.916 18.6797C210.656 19.3658 211.026 20.188 211.026 21.1463C211.026 22.1155 210.656 22.9486 209.916 23.6456C209.186 24.3317 208.304 24.6747 207.269 24.6747Z" fill="#FFFFFF"/>
<defs>
<clipPath id="clip0_8_6d">
<rect width="72" height="72" fill="white"/>
</clipPath>
</defs>
</svg>
