<svg xmlns="http://www.w3.org/2000/svg" viewBox="0 0 264 78" fill="none" role="img" aria-label="deferi">
  <!-- Wordmark Deferi em CURVAS (Inter Bold outlined, tracking -3%). Independente de fonte. Navy #12294D. -->
  <path d="M22.1236 77.7699C17.9806 77.7699 14.2282 76.7045 10.8665 74.5739C7.52841 72.4195 4.87689 69.259 2.91193 65.0923C0.970644 60.902 0 55.7647 0 49.6804C0 43.4304 1.00616 38.2339 3.01847 34.0909C5.03078 29.9242 7.70597 26.8111 11.044 24.7514C14.4058 22.6681 18.0871 21.6264 22.0881 21.6264C25.142 21.6264 27.687 22.1473 29.723 23.1889C31.7827 24.2069 33.4399 25.4853 34.6946 27.0242C35.973 28.5393 36.9437 30.0308 37.6065 31.4986H38.0682V4.15483H53.1605V76.8821H38.2457V68.1463H37.6065C36.8963 69.6615 35.8902 71.1648 34.5881 72.6562C33.3097 74.1241 31.6406 75.3433 29.581 76.3139C27.545 77.2846 25.0592 77.7699 22.1236 77.7699ZM26.9176 65.7315C29.3561 65.7315 31.4157 65.0687 33.0966 63.7429C34.8011 62.3935 36.1032 60.5114 37.0028 58.0966C37.9261 55.6818 38.3878 52.8527 38.3878 49.6094C38.3878 46.366 37.938 43.5488 37.0384 41.1577C36.1387 38.7666 34.8366 36.92 33.1321 35.6179C31.4276 34.3158 29.3561 33.6648 26.9176 33.6648C24.4318 33.6648 22.3366 34.3395 20.6321 35.6889C18.9276 37.0384 17.6373 38.9086 16.7614 41.2997C15.8854 43.6908 15.4474 46.4607 15.4474 49.6094C15.4474 52.7817 15.8854 55.5871 16.7614 58.0256C17.661 60.4403 18.9512 62.3343 20.6321 63.7074C22.3366 65.0568 24.4318 65.7315 26.9176 65.7315Z" fill="#12294D"/>
  <path d="M87.4563 77.9474C81.8455 77.9474 77.016 76.8111 72.9677 74.5384C68.9431 72.242 65.8417 68.9986 63.6637 64.8082C61.4857 60.5942 60.3967 55.6108 60.3967 49.858C60.3967 44.2472 61.4857 39.3229 63.6637 35.0852C65.8417 30.8475 68.9076 27.545 72.8612 25.1776C76.8384 22.8101 81.5023 21.6264 86.8526 21.6264C90.4511 21.6264 93.801 22.2064 96.9023 23.3665C100.027 24.5028 102.75 26.2192 105.07 28.5156C107.414 30.812 109.237 33.7003 110.539 37.1804C111.841 40.6368 112.492 44.6851 112.492 49.3253V53.4801H66.4336V44.1051H98.2518C98.2518 41.9271 97.7783 39.9976 96.8313 38.3168C95.8844 36.6359 94.5704 35.322 92.8896 34.375C91.2324 33.4044 89.3029 32.919 87.1012 32.919C84.8048 32.919 82.7688 33.4517 80.9933 34.517C79.2414 35.5587 77.8683 36.9673 76.8739 38.7429C75.8796 40.4948 75.3706 42.4479 75.3469 44.6023V53.5156C75.3469 56.2145 75.8441 58.5464 76.8384 60.5114C77.8564 62.4763 79.2887 63.9915 81.1353 65.0568C82.9819 66.1222 85.1718 66.6548 87.7049 66.6548C89.3858 66.6548 90.9246 66.4181 92.3214 65.9446C93.7182 65.4711 94.9137 64.7609 95.908 63.8139C96.9023 62.867 97.6599 61.7069 98.1808 60.3338L112.172 61.2571C111.462 64.6188 110.006 67.5545 107.804 70.0639C105.626 72.5497 102.809 74.491 99.3526 75.8878C95.9199 77.2609 91.9544 77.9474 87.4563 77.9474Z" fill="#12294D"/>
  <path d="M148.696 22.3367V33.7003H115.032V22.3367H148.696ZM122.738 76.8821V18.3949C122.738 14.4413 123.507 11.1624 125.046 8.55824C126.608 5.95407 128.739 4.00095 131.438 2.69886C134.137 1.39678 137.203 0.745738 140.635 0.745738C142.955 0.745738 145.074 0.923296 146.992 1.27841C148.933 1.63352 150.377 1.95313 151.324 2.23722L148.625 13.6009C148.033 13.4115 147.3 13.2339 146.424 13.0682C145.571 12.9025 144.695 12.8196 143.796 12.8196C141.57 12.8196 140.02 13.3404 139.144 14.3821C138.268 15.4001 137.83 16.8324 137.83 18.679V76.8821H122.738Z" fill="#12294D"/>
  <path d="M177.843 77.9474C172.232 77.9474 167.403 76.8111 163.354 74.5384C159.33 72.242 156.228 68.9986 154.05 64.8082C151.872 60.5942 150.783 55.6108 150.783 49.858C150.783 44.2472 151.872 39.3229 154.05 35.0852C156.228 30.8475 159.294 27.545 163.248 25.1776C167.225 22.8101 171.889 21.6264 177.239 21.6264C180.838 21.6264 184.188 22.2064 187.289 23.3665C190.414 24.5028 193.137 26.2192 195.457 28.5156C197.8 30.812 199.623 33.7003 200.925 37.1804C202.228 40.6368 202.879 44.6851 202.879 49.3253V53.4801H156.82V44.1051H188.639C188.639 41.9271 188.165 39.9976 187.218 38.3168C186.271 36.6359 184.957 35.322 183.276 34.375C181.619 33.4044 179.69 32.919 177.488 32.919C175.192 32.919 173.156 33.4517 171.38 34.517C169.628 35.5587 168.255 36.9673 167.261 38.7429C166.266 40.4948 165.757 42.4479 165.734 44.6023V53.5156C165.734 56.2145 166.231 58.5464 167.225 60.5114C168.243 62.4763 169.675 63.9915 171.522 65.0568C173.369 66.1222 175.558 66.6548 178.092 66.6548C179.772 66.6548 181.311 66.4181 182.708 65.9446C184.105 65.4711 185.3 64.7609 186.295 63.8139C187.289 62.867 188.047 61.7069 188.567 60.3338L202.559 61.2571C201.849 64.6188 200.393 67.5545 198.191 70.0639C196.013 72.5497 193.196 74.491 189.739 75.8878C186.307 77.2609 182.341 77.9474 177.843 77.9474Z" fill="#12294D"/>
  <path d="M209.751 76.8821V22.3367H224.417V31.8537H224.985C225.979 28.4683 227.648 25.9115 229.992 24.1832C232.336 22.4313 235.035 21.5554 238.089 21.5554C238.846 21.5554 239.663 21.6027 240.539 21.6974C241.415 21.7921 242.184 21.9224 242.847 22.0881V35.5114C242.137 35.2983 241.155 35.1089 239.9 34.9432C238.645 34.7775 237.497 34.6946 236.455 34.6946C234.23 34.6946 232.241 35.1799 230.489 36.1506C228.761 37.0975 227.388 38.4233 226.37 40.1278C225.376 41.8324 224.879 43.7974 224.879 46.0227V76.8821H209.751Z" fill="#12294D"/>
  <path d="M247.669 76.8821V22.3367H262.797V76.8821H247.669ZM255.268 15.3054C253.019 15.3054 251.09 14.5597 249.48 13.0682C247.894 11.553 247.1 9.74195 247.1 7.63494C247.1 5.55161 247.894 3.76421 249.48 2.27273C251.09 0.757577 253.019 0 255.268 0C257.517 0 259.435 0.757577 261.021 2.27273C262.631 3.76421 263.436 5.55161 263.436 7.63494C263.436 9.74195 262.631 11.553 261.021 13.0682C259.435 14.5597 257.517 15.3054 255.268 15.3054Z" fill="#12294D"/>
</svg>
